# Blender v2.78 (sub 0) OBJ File: 'wood_house.blend'
# www.blender.org
mtllib wood_house.mtl
o Cube
v 1.000000 0.000000 -1.000000
v 1.000000 0.000000 1.000000
v -1.000000 0.000000 1.000000
v -1.000000 0.000000 -1.000000
v 1.000000 1.500000 -0.999999
v 0.999999 1.500000 1.000001
v -1.000000 1.500000 1.000000
v -1.000000 1.500000 -1.000000
v 1.000000 1.500000 -0.999999
v 0.999999 1.500000 1.000001
v -1.000000 1.500000 1.000000
v -1.000000 1.500000 -1.000000
v -0.000000 2.500000 0.000000
vn 0.0000 -1.0000 0.0000
vn 0.0000 0.0000 1.0000
vn 1.0000 0.0000 0.0000
vn -1.0000 -0.0000 -0.0000
vn 0.0000 0.0000 -1.0000
vn -0.7071 0.7071 -0.0000
vn 0.0000 0.7071 -0.7071
vn -0.0000 0.7071 0.7071
vn 0.7071 0.7071 0.0000
usemtl Material.001
s off
f 1//1 2//1 3//1 4//1
f 8//2 7//2 11//2 12//2
f 1//3 5//3 6//3 2//3
f 2//2 6//2 7//2 3//2
f 3//4 7//4 8//4 4//4
f 5//5 1//5 4//5 8//5
f 12//6 11//6 13//6
f 5//2 8//2 12//2 9//2
f 7//2 6//2 10//2 11//2
f 6//2 5//2 9//2 10//2
f 9//7 12//7 13//7
f 11//8 10//8 13//8
f 10//9 9//9 13//9
